<?xml version="1.0" encoding="UTF-8"?>
<svg id="Layer_1" data-name="Layer 1" xmlns="http://www.w3.org/2000/svg" viewBox="0 0 1000 1000">
  <defs>
    <style>
      .cls-1 {
        fill: #231f20;
      }

      .cls-2 {
        fill: #ff0f00;
      }
    </style>
  </defs>
  <g>
    <path class="cls-1" d="M330.38,496.13l16.8-35.2h-44.29l-17.42,35.2-1.48,2.97-.45.92-.59-.92-1.87-2.97-47.76-75.28h58.24c18.67,0,36.63,9.97,47.11,26.18l8.76,13.59,2.17,3.32,13.8,21.34,7,10.83,1.9,2.97,1.81,2.82h-46.48l1.37-2.82,1.4-2.97Z"/>
    <path class="cls-1" d="M381.88,513.94c-5.73,8.82-11.25,17.51-16.5,26.06h-55.89l9.71-20.36h.03l1.22-2.58h-.03l5.82-12.17h49.81l5.85,9.05Z"/>
    <path class="cls-1" d="M398.71,540h-29.83c4.66-7.54,9.59-15.32,14.78-23.3l.21.33,1.34,2.08,1.78,2.76,5.88,9.08,1.28,1.99,4.57,7.06Z"/>
    <path class="cls-2" d="M221.17,496.13h-48.68l-9.11-14.1-1.63-2.55h-.03l-12.58-19.5h44.29v.09h1.4s-.03-.06-.03-.09h43.57l-.06.09h.12l-17.25,36.07Z"/>
    <path class="cls-2" d="M314.49,579.15h-58.21c-18.67,0-36.65-10.01-47.1-26.19l-9.2-14.21v-.04l-.83-1.34-21.01-32.5-1.91-2.97-1.83-2.82h45.38l-1.36,2.82-1.44,2.97-16.32,34.2h44.27l16.95-34.2,1.47-2.97.96-1.93,1.21,1.93,1.91,2.97,47.06,74.27Z"/>
    <path class="cls-2" d="M399.57,503.9c7.67,12,14.76,23.58,21.09,34.31-7.37-10.05-15.15-21.12-23.13-32.95-.4.15-.81.25-1.23.3-.06,8.84-.23,17.25-.53,24.88-.3-7.63-.51-16.04-.53-24.88-.36-.06-.68-.11-.98-.21-1.42,2.17-2.8,4.33-4.25,6.54-1.61,2.44-3.19,4.84-4.8,7.22-4.78,7.24-9.56,14.21-14.23,20.9-4.72,6.78-9.35,13.26-13.79,19.38,3.67-6.23,7.56-12.72,11.69-19.38,4.65-7.54,9.58-15.32,14.77-23.31,1.34-2.1,2.74-4.27,4.16-6.4,1.4-2.13,2.8-4.25,4.19-6.35-.51-.57-.91-1.28-1.13-2.02h-214.65l-1.83-2.82h216.48c.23-.76.62-1.45,1.13-2.02-1.4-2.12-2.8-4.21-4.19-6.35-11.39-17.38-21.73-33.99-30.63-49.1,10.3,14.09,21.43,30.15,32.82,47.5,1.45,2.23,2.83,4.36,4.25,6.52.3-.08.62-.13.98-.21.02-8.84.23-17.23.53-24.86.3,7.63.47,16.02.53,24.86.42.08.83.15,1.23.3,7.97-11.81,15.76-22.88,23.13-32.95-6.33,10.75-13.41,22.33-21.09,34.31.72.81,1.15,1.85,1.25,2.97,4.52.09,8.82.25,12.85.45-4.02.17-8.33.32-12.85.45-.09,1.11-.53,2.13-1.25,2.93Z"/>
  </g>
  <g>
    <path class="cls-1" d="M445.5,479.9h11.71c3.08,0,5.73,1.23,7.71,3.59l1.82,2.16s.02.02.03.03l18.76,22.35,1.06,1.27c.56.67,1.33,1.03,2.21,1.03h1.42v-29.75c0-.38.31-.69.69-.69h8.4c.38,0,.69.31.69.69v38.84c0,.38-.31.68-.69.68h-11.71c-3.08,0-5.73-1.23-7.71-3.59l-1.82-2.16s-.02-.02-.03-.03l-18.76-22.35-1.06-1.27c-.57-.68-1.33-1.03-2.21-1.03h-1.42v29.76c0,.38-.31.68-.69.68h-8.4c-.38,0-.69-.31-.69-.68v-38.84c0-.38.31-.69.69-.69Z"/>
    <path class="cls-1" d="M556.62,479.9h8.4c.38,0,.69.31.69.69v27.32c0,6.71-5.49,12.2-12.2,12.2h-32.97c-6.71,0-12.2-5.49-12.2-12.2v-27.32c0-.38.31-.69.68-.69h8.4c.38,0,.69.31.69.69v26.68c0,2.34,1.92,4.26,4.26,4.26h29.31c2.34,0,4.26-1.92,4.26-4.26v-26.68c0-.38.31-.69.69-.69Z"/>
    <path class="cls-1" d="M570,480.25c.12-.23.34-.35.6-.35h9.9c.24,0,.44.11.57.31l17.39,27.83.02.03c.92,1.46,2.41,2.27,4.13,2.27h4.14c1.45,0,2.73-.58,3.65-1.63l-17.35-27.76c-.14-.22-.14-.47-.02-.7.12-.23.34-.35.6-.35h9.9c.24,0,.44.11.57.31l17.39,27.83s.01.02.02.03c.92,1.46,2.41,2.27,4.13,2.27h4.14c1.73,0,3.22-.82,4.14-2.28l17.4-27.84c.13-.2.33-.31.58-.31h9.9c.26,0,.47.13.6.35s.12.48-.02.7l-19.44,31.11-.02.04c-1.52,2.41-3.63,4.27-6.09,5.44-1.93.92-4.08,1.41-6.32,1.41h-5.58c-2.24,0-4.39-.49-6.32-1.41-.85-.4-1.65-.89-2.4-1.45-.75.56-1.56,1.04-2.4,1.45-1.93.92-4.08,1.41-6.32,1.41h-5.58c-2.24,0-4.39-.49-6.32-1.41-2.47-1.18-4.59-3.05-6.11-5.48l-19.44-31.11c-.14-.22-.14-.47-.02-.7Z"/>
    <path class="cls-1" d="M662.36,480.95l-19.44,31.11c-1.52,2.43-3.64,4.3-6.11,5.48-1.93.92-4.08,1.41-6.32,1.41h-1.44s-2.7,0-2.7,0h-1.44c-2.24,0-4.39-.49-6.32-1.41-.85-.4-1.65-.89-2.4-1.45-.75.56-1.56,1.04-2.4,1.45-1.93.92-4.08,1.41-6.32,1.41h-1.44s-2.7,0-2.7,0h-1.44c-2.24,0-4.39-.49-6.32-1.41-2.46-1.17-4.57-3.03-6.09-5.44l-.02-.04-19.44-31.11c-.14-.22-.14-.47-.02-.7s.34-.35.6-.35h.2s0,0,0,0h9.69c.24,0,.44.11.58.31l17.4,27.84c.92,1.46,2.41,2.28,4.14,2.28h4.14c1.73,0,3.21-.82,4.13-2.27,0,0,.01-.02.02-.03l17.39-27.83c.13-.2.33-.31.57-.31h9.69s0,0,0,0h.2c.26,0,.47.13.6.35.13.23.12.48-.02.7l-17.35,27.76c.92,1.05,2.2,1.63,3.65,1.63h4.14c1.73,0,3.21-.82,4.13-2.27l.02-.03,17.39-27.83c.13-.2.33-.31.57-.31h9.69s0,0,0,0h.2c.26,0,.47.13.6.35.13.23.12.48-.02.7Z"/>
    <path class="cls-1" d="M675.52,485.95c2.79-3.84,7.12-6.05,11.86-6.05h5.45c4.73,0,9.06,2.19,11.84,6.02l24.01,33.09c.16.21.18.48.06.71-.12.23-.35.37-.61.37h-10.37c-.23,0-.42-.1-.55-.28l-21.28-29.32c-.95-1.31-2.34-2.02-3.96-2.02h-3.72c-1.62,0-3.01.71-3.96,2.02l-21.28,29.32c-.13.18-.33.28-.55.28h-10.37c-.26,0-.49-.14-.61-.37-.12-.24-.1-.5.06-.71l24-33.06Z"/>
    <path class="cls-1" d="M714.98,480.27c.12-.23.35-.37.61-.37h10.37c.23,0,.42.1.56.28l21.28,29.32c.95,1.31,2.34,2.02,3.96,2.02h3.72c1.62,0,3.01-.71,3.96-2.02l21.28-29.32c.13-.18.33-.28.55-.28h10.37c.26,0,.49.14.61.37.12.24.1.5-.06.72l-24.01,33.09c-2.78,3.83-7.11,6.02-11.84,6.02h-5.45c-4.74,0-9.08-2.21-11.86-6.05l-24-33.06c-.16-.21-.18-.48-.06-.72Z"/>
    <path class="cls-1" d="M807.92,511.52h40.38c.38,0,.69.31.69.68v7.21c0,.38-.31.69-.69.69h-42.22c-6.71,0-12.2-5.49-12.2-12.2v-15.81c0-6.71,5.49-12.2,12.2-12.2h42.22c.38,0,.69.31.69.69v7.21c0,.38-.31.69-.69.69h-40.38c-2.34,0-4.26,1.92-4.26,4.26v14.52c0,2.34,1.92,4.26,4.26,4.26ZM810.66,495.71c-.38,0-.69.31-.69.69v7.21c0,.38.31.69.69.69h37.64c.38,0,.69-.31.69-.69v-7.21c0-.38-.31-.69-.69-.69h-37.64Z"/>
  </g>
  <g>
    <path class="cls-2" d="M692.73,549.32h8.48v2.47h-11.09v-19.65h2.61v17.18Z"/>
    <path class="cls-2" d="M738.18,551.79l-1.6-4.41h-8.84l-1.6,4.41h-2.78l7.33-19.65h2.94l7.33,19.65h-2.78ZM728.63,544.94h7.06l-3.53-9.7-3.53,9.7Z"/>
    <path class="cls-2" d="M769.97,552.15c-1.84,0-3.4-.43-4.7-1.29-1.3-.86-2.21-2.04-2.74-3.54l2.25-1.29c.77,2.38,2.52,3.57,5.25,3.57,1.35,0,2.38-.28,3.09-.83.71-.55,1.07-1.29,1.07-2.2s-.36-1.64-1.07-2.11-1.9-.96-3.57-1.49c-.81-.28-1.44-.49-1.87-.64-.44-.15-.98-.39-1.62-.72-.65-.33-1.13-.66-1.45-1.01-.32-.35-.6-.8-.85-1.36-.25-.56-.38-1.2-.38-1.91,0-1.7.6-3.06,1.8-4.06,1.19-1,2.66-1.5,4.38-1.5,1.56,0,2.91.39,4.06,1.18,1.15.79,2.02,1.83,2.6,3.12l-2.19,1.26c-.84-2.02-2.33-3.03-4.46-3.03-1.06,0-1.93.26-2.58.79-.66.52-.98,1.24-.98,2.13s.31,1.52.93,1.97c.62.45,1.69.92,3.2,1.4.53.19.91.32,1.14.4.23.08.58.21,1.06.38.48.17.83.31,1.05.42s.53.27.91.48c.39.21.67.4.86.59.18.19.41.42.66.69.25.27.44.55.55.83.11.28.21.61.29.97.08.36.13.75.13,1.17,0,1.72-.63,3.09-1.88,4.11-1.26,1.02-2.89,1.53-4.92,1.53Z"/>
    <path class="cls-2" d="M803.19,549.32h9.13v2.47h-11.74v-19.65h11.6v2.47h-8.98v6.04h8.28v2.44h-8.28v6.23Z"/>
    <path class="cls-2" d="M847.97,551.79l-4.4-7.53h-4.64v7.53h-2.61v-19.65h7.86c1.69,0,3.13.59,4.33,1.78,1.19,1.19,1.79,2.63,1.79,4.31,0,1.27-.38,2.44-1.13,3.48-.76,1.05-1.74,1.79-2.93,2.22l4.63,7.86h-2.89ZM838.93,534.58v7.33h5.25c.98,0,1.81-.36,2.49-1.08.69-.72,1.03-1.59,1.03-2.6s-.34-1.87-1.03-2.58c-.68-.71-1.51-1.07-2.49-1.07h-5.25Z"/>
  </g>
</svg>